<svg xmlns="http://www.w3.org/2000/svg" xmlns:xlink="http://www.w3.org/1999/xlink" width="500" zoomAndPan="magnify" viewBox="0 0 375 374.999991" height="500" preserveAspectRatio="xMidYMid meet" version="1.0"><defs><clipPath id="b2966a0c77"><path d="M 247.292969 255.070312 L 258.613281 255.070312 L 258.613281 266.390625 L 247.292969 266.390625 Z M 247.292969 255.070312 " clip-rule="nonzero"/></clipPath><clipPath id="bccda1b7cd"><path d="M 252.953125 255.070312 C 249.828125 255.070312 247.292969 257.605469 247.292969 260.730469 C 247.292969 263.859375 249.828125 266.390625 252.953125 266.390625 C 256.078125 266.390625 258.613281 263.859375 258.613281 260.730469 C 258.613281 257.605469 256.078125 255.070312 252.953125 255.070312 Z M 252.953125 255.070312 " clip-rule="nonzero"/></clipPath><clipPath id="24f04f2d50"><path d="M 0.292969 0.0703125 L 11.613281 0.0703125 L 11.613281 11.390625 L 0.292969 11.390625 Z M 0.292969 0.0703125 " clip-rule="nonzero"/></clipPath><clipPath id="b0a506e069"><path d="M 5.953125 0.0703125 C 2.828125 0.0703125 0.292969 2.605469 0.292969 5.730469 C 0.292969 8.859375 2.828125 11.390625 5.953125 11.390625 C 9.078125 11.390625 11.613281 8.859375 11.613281 5.730469 C 11.613281 2.605469 9.078125 0.0703125 5.953125 0.0703125 Z M 5.953125 0.0703125 " clip-rule="nonzero"/></clipPath><clipPath id="52ef090147"><rect x="0" width="12" y="0" height="12"/></clipPath></defs><path fill="#ffffff" d="M 198.332031 26.421875 C 199.773438 29.679688 198.742188 33.089844 198.363281 34.042969 C 198.019531 34.914062 197.839844 34.976562 196.058594 37.550781 C 192.769531 42.292969 190.46875 45.367188 189.59375 51.152344 C 188.882812 50.972656 188.1875 50.953125 187.429688 51.125 C 185.953125 51.464844 181.476562 58.328125 178.003906 59.179688 C 176.617188 59.519531 174.488281 59.117188 171.257812 55.855469 C 168.402344 58.777344 166.847656 61.503906 165.949219 63.46875 C 164.566406 66.503906 164.441406 67.824219 162.882812 69.097656 C 160.386719 71.128906 155.652344 71.617188 152.652344 69.027344 C 149.316406 66.148438 150.199219 61.261719 150.285156 60.835938 C 151.550781 54.394531 158.667969 54.019531 169.90625 38.628906 C 167.898438 34.722656 168.550781 31.234375 170.035156 30.511719 C 171.289062 29.902344 173.570312 31.058594 175.398438 33.21875 C 176.480469 31.78125 178.054688 29.820312 180.144531 27.660156 C 184.34375 23.316406 186.441406 21.140625 189.285156 20.914062 C 192.765625 20.632812 196.757812 22.875 198.332031 26.421875 Z M 198.332031 26.421875 " fill-opacity="1" fill-rule="nonzero"/><path fill="#27022e" d="M 198.1875 26.460938 C 198.820312 28.789062 198.8125 31.539062 197.917969 33.804688 C 196.632812 37.058594 190.523438 41.6875 189.039062 51 C 189.277344 50.867188 189.511719 50.734375 189.746094 50.597656 C 186.144531 49.789062 186.167969 51.632812 181.566406 56.078125 C 178.195312 59.335938 176.269531 60.015625 171.671875 55.4375 C 171.449219 55.214844 171.0625 55.207031 170.839844 55.4375 C 166.089844 60.347656 165.316406 63.714844 163.855469 66.699219 C 162.109375 70.277344 156.824219 71.019531 153.6875 68.867188 C 151.09375 67.089844 150.390625 63.429688 151.160156 60.527344 C 152.632812 54.949219 159.558594 54.105469 170.652344 39.0625 C 170.835938 38.808594 170.777344 38.453125 170.652344 38.191406 C 168.019531 32.867188 169.761719 28.035156 174.796875 33.816406 C 175.191406 34.273438 175.828125 34.046875 176.132812 33.644531 C 178.125 31 184.082031 24.261719 186.925781 22.566406 C 190.832031 20.238281 195.890625 23.046875 197.664062 26.808594 C 198.089844 27.710938 199.40625 26.925781 199 26.027344 C 197.019531 21.667969 191.335938 18.582031 186.742188 20.765625 C 183.417969 22.347656 176.882812 29.851562 174.664062 32.789062 C 175.109375 32.730469 175.554688 32.671875 176 32.613281 C 170.023438 25.730469 165.261719 31.230469 169.164062 39.0625 L 169.164062 38.191406 C 158.292969 53.089844 151.160156 53.839844 149.613281 60.234375 C 148.859375 63.347656 149.5 67.132812 151.90625 69.378906 C 155.007812 72.277344 160.507812 72.285156 163.621094 69.375 C 166.378906 66.800781 165.273438 62.90625 171.675781 56.269531 L 170.839844 56.269531 C 176.964844 62.351562 179.558594 60.097656 185.25 53.863281 C 186.945312 52.003906 187.394531 51.246094 189.441406 51.699219 C 189.71875 51.761719 190.097656 51.617188 190.148438 51.300781 C 191.617188 41.976562 197.867188 37.390625 199.03125 33.667969 C 199.796875 31.207031 199.773438 28.605469 198.460938 26.34375 C 198.375 26.195312 198.144531 26.292969 198.1875 26.457031 Z M 198.1875 26.460938 " fill-opacity="1" fill-rule="nonzero"/><path fill="#27022e" d="M 174.445312 31.644531 C 175.808594 33.5 175.644531 34.507812 176.488281 34.917969 C 177.871094 35.59375 178.875 34.515625 190.351562 26.296875 C 190.058594 27.972656 191.125 29.777344 192.726562 30.332031 C 194.332031 30.886719 196.285156 30.128906 197.09375 28.636719 C 198.691406 30.359375 198.90625 33.210938 197.585938 35.15625 C 199.878906 35.238281 202.234375 35.21875 204.394531 34.4375 C 206.554688 33.65625 208.511719 31.980469 209.054688 29.75 C 209.597656 27.515625 208.316406 24.832031 206.078125 24.328125 C 208.511719 22.546875 208.109375 18.136719 205.394531 16.828125 C 203.605469 15.964844 201.46875 16.398438 199.535156 15.941406 C 196.269531 15.164062 194.191406 12.085938 191.980469 9.554688 C 189.769531 7.027344 186.320312 4.71875 183.253906 6.089844 C 179.613281 7.714844 178.863281 13.597656 174.925781 14.238281 C 171.636719 14.769531 168.90625 11.457031 166.859375 19.082031 C 165.605469 23.753906 165.488281 30.160156 167.539062 30.820312 C 168.878906 31.25 170.097656 28.886719 172.050781 29.441406 C 173.027344 29.714844 173.65625 30.570312 174.445312 31.644531 Z M 174.445312 31.644531 " fill-opacity="1" fill-rule="nonzero"/><path fill="#27022e" d="M 174.132812 31.832031 C 175.296875 33.59375 175.296875 34.609375 176.019531 35.164062 C 177.886719 36.597656 180.199219 34.183594 190.613281 26.75 C 190.359375 26.554688 190.101562 26.355469 189.84375 26.160156 C 189.582031 28.097656 190.589844 30.078125 192.472656 30.785156 C 194.367188 31.496094 196.519531 30.601562 197.46875 28.851562 L 196.789062 28.941406 C 198.328125 30.566406 198.433594 33.101562 197.226562 34.941406 C 197.042969 35.222656 197.289062 35.5625 197.585938 35.574219 C 201.566406 35.757812 206.246094 35.367188 208.625 31.679688 C 210.347656 29.015625 209.496094 24.84375 206.1875 23.933594 C 206.21875 24.183594 206.25 24.429688 206.285156 24.679688 C 208.140625 23.265625 208.585938 20.691406 207.644531 18.605469 C 206.265625 15.546875 203.046875 16.039062 200.277344 15.613281 C 196.867188 15.09375 194.769531 12.085938 192.691406 9.640625 C 190.796875 7.40625 188.042969 5.011719 184.90625 5.195312 C 182.222656 5.351562 180.609375 7.449219 179.261719 9.527344 C 177.449219 12.324219 176.425781 14.113281 173.097656 13.707031 C 170.523438 13.394531 169.222656 13.109375 167.832031 15.328125 C 165.585938 18.914062 164.25 29.28125 166.976562 31.078125 C 167.933594 31.710938 168.902344 31.097656 169.726562 30.558594 C 171.824219 29.195312 172.527344 29.859375 174.042969 31.882812 C 174.398438 32.363281 175.21875 31.902344 174.859375 31.40625 C 174.15625 30.445312 173.402344 29.308594 172.183594 28.976562 C 169.734375 28.304688 168.257812 31.457031 167.191406 29.929688 C 165.617188 27.679688 166.675781 18.011719 169.121094 15.234375 C 171.035156 13.066406 174.539062 16.683594 177.945312 13.054688 C 179.480469 11.421875 180.324219 9.261719 181.898438 7.664062 C 184.296875 5.238281 187.53125 6.257812 189.890625 8.199219 C 193.09375 10.835938 195.230469 15.601562 199.726562 16.449219 C 201.503906 16.789062 203.496094 16.414062 205.171875 17.214844 C 207.730469 18.4375 207.921875 22.347656 205.789062 24.039062 C 205.546875 24.234375 205.695312 24.652344 205.972656 24.722656 C 208.664062 25.402344 210.058594 29.167969 207.34375 32.066406 C 204.859375 34.71875 200.972656 34.804688 197.589844 34.738281 C 197.710938 34.945312 197.832031 35.15625 197.953125 35.367188 C 199.339844 33.125 199.035156 30.347656 197.398438 28.328125 C 197.214844 28.101562 196.855469 28.203125 196.71875 28.417969 C 195.929688 29.640625 194.28125 30.351562 192.867188 29.835938 C 191.429688 29.308594 190.683594 27.761719 190.875 26.296875 C 190.925781 25.914062 190.386719 25.628906 190.085938 25.847656 C 186.855469 28.167969 183.609375 30.472656 180.390625 32.8125 C 179.546875 33.425781 177.839844 35.023438 176.699219 34.496094 C 176.039062 34.191406 176.167969 33.3125 174.761719 31.460938 C 174.488281 31.097656 173.867188 31.425781 174.132812 31.828125 Z M 174.132812 31.832031 " fill-opacity="1" fill-rule="nonzero"/><path fill="#27022e" d="M 171.480469 34.011719 C 171.671875 34.996094 172.523438 35.390625 172.832031 37.300781 C 172.820312 37.238281 172.824219 37.242188 172.832031 37.304688 C 172.9375 38.234375 173.785156 38.238281 174.007812 37.777344 C 174.441406 36.894531 173.167969 33.808594 171.652344 33.785156 C 171.527344 33.78125 171.457031 33.898438 171.476562 34.007812 Z M 171.480469 34.011719 " fill-opacity="1" fill-rule="nonzero"/><path fill="#27022e" d="M 187.988281 36.722656 C 191.722656 36.757812 192.21875 38.492188 192.863281 39.023438 C 193.382812 39.445312 194.277344 38.855469 193.074219 37.5625 C 191.808594 36.203125 189.527344 35.378906 187.859375 36.253906 C 187.632812 36.371094 187.742188 36.722656 187.988281 36.722656 Z M 187.988281 36.722656 " fill-opacity="1" fill-rule="nonzero"/><path fill="#27022e" d="M 189.175781 41.214844 C 189.449219 41.125 189.699219 40.875 189.789062 40.601562 C 189.941406 40.3125 189.878906 40.089844 189.847656 39.847656 C 189.792969 39.652344 189.691406 39.480469 189.550781 39.335938 L 189.316406 39.15625 C 189.007812 38.976562 188.59375 38.933594 188.28125 39.097656 C 188.011719 39.183594 187.757812 39.4375 187.671875 39.710938 C 187.519531 40 187.578125 40.21875 187.613281 40.464844 C 187.667969 40.660156 187.765625 40.832031 187.910156 40.976562 L 188.144531 41.15625 C 188.445312 41.332031 188.859375 41.382812 189.175781 41.214844 Z M 189.175781 41.214844 " fill-opacity="1" fill-rule="nonzero"/><path fill="#27022e" d="M 180.480469 51.558594 C 180.570312 51.382812 180.710938 51.3125 180.566406 50.945312 C 180.304688 50.28125 179.566406 49.875 178.839844 50.023438 C 177.328125 50.332031 176.984375 52.554688 178.023438 53.574219 C 178.273438 53.816406 178.699219 53.84375 178.691406 53.539062 C 178.6875 53.171875 178.542969 53.078125 178.386719 52.789062 C 177.484375 51.121094 179.4375 49.820312 180.105469 51.300781 C 180.140625 51.382812 180.238281 51.457031 180.261719 51.53125 C 180.296875 51.621094 180.429688 51.65625 180.480469 51.558594 Z M 180.480469 51.558594 " fill-opacity="1" fill-rule="nonzero"/><path fill="#ffffff" d="M 191.679688 21.554688 C 192.304688 23.296875 193.714844 25.289062 195.671875 25.628906 C 197.671875 25.972656 199.539062 24.332031 199.617188 22.339844 C 199.402344 22.398438 199.191406 22.457031 198.976562 22.515625 C 199.867188 23.917969 202.28125 26.660156 203.777344 26.703125 C 203.929688 26.710938 204.058594 26.515625 203.960938 26.382812 C 203.457031 25.683594 201.449219 25.0625 199.570312 22.167969 C 199.386719 21.882812 198.941406 21.996094 198.929688 22.339844 C 198.875 24.195312 196.953125 25.492188 195.222656 24.851562 C 193.660156 24.277344 192.816406 22.683594 191.808594 21.480469 C 191.757812 21.421875 191.652344 21.484375 191.679688 21.554688 Z M 191.679688 21.554688 " fill-opacity="1" fill-rule="nonzero"/><path fill="#ffffff" d="M 168.632812 330.835938 C 165.304688 335.921875 168.785156 341.058594 167.390625 346.054688 C 166.222656 350.25 167.703125 352.53125 172.863281 352.871094 C 177.574219 353.179688 184.113281 352.425781 184.871094 352.335938 C 182.878906 335.722656 187.859375 328.085938 184.429688 325.421875 C 183.324219 324.5625 181.910156 324.777344 179.605469 325.128906 C 177.445312 325.460938 171.5625 326.359375 168.632812 330.835938 Z M 168.632812 330.835938 " fill-opacity="1" fill-rule="nonzero"/><path fill="#27022e" d="M 168.378906 330.6875 C 165.101562 335.042969 167.421875 340.160156 167.023438 344.367188 C 166.910156 345.570312 166.441406 346.695312 166.335938 347.902344 C 165.800781 354.15625 173.792969 353.753906 177.949219 353.589844 C 180.257812 353.496094 182.570312 353.316406 184.867188 353.050781 C 185.214844 353.007812 185.628906 352.753906 185.582031 352.335938 C 184.214844 340.476562 185.738281 335.820312 186.167969 330.136719 C 186.320312 328.097656 186.242188 325.507812 184.058594 324.5625 C 182.636719 323.949219 180.917969 324.363281 179.453125 324.585938 C 175.117188 325.253906 170.398438 326.785156 168.1875 330.578125 C 167.90625 331.0625 168.628906 331.667969 168.996094 331.199219 C 170.824219 328.832031 173.167969 327.320312 176.027344 326.46875 C 191.8125 321.75 181.65625 331.347656 184.15625 352.335938 C 184.394531 352.097656 184.628906 351.863281 184.867188 351.625 C 180.78125 352.113281 176.546875 352.503906 172.4375 352.148438 C 170.027344 351.941406 167.539062 350.996094 167.671875 348.15625 C 167.757812 346.261719 168.773438 345.46875 168.253906 341.125 C 167.839844 337.640625 167.203125 334.261719 168.886719 330.984375 C 169.066406 330.640625 168.601562 330.390625 168.378906 330.6875 Z M 168.378906 330.6875 " fill-opacity="1" fill-rule="nonzero"/><path fill="#27022e" d="M 167.390625 346.054688 C 164.664062 345.851562 162.5625 354.269531 160.804688 361.316406 C 159.507812 366.515625 161.570312 368.277344 166.925781 368.273438 C 172.835938 368.273438 178.75 368.269531 184.660156 368.269531 C 191.621094 368.265625 195.09375 367.839844 199.445312 368.261719 C 204.609375 368.765625 209.003906 369.742188 211.820312 367.175781 C 214.515625 364.71875 214.128906 361.335938 211.644531 358.777344 C 210.105469 357.199219 208.324219 356.828125 206.242188 356.308594 C 202.675781 355.421875 199.222656 354.132812 195.707031 353.074219 C 187.566406 350.628906 185.4375 349.34375 182.964844 350.671875 C 181.476562 351.46875 181.511719 352.328125 179.777344 352.964844 C 176.203125 354.273438 172.472656 351.925781 172.273438 351.792969 C 168.699219 349.472656 169.089844 346.179688 167.390625 346.050781 Z M 167.390625 346.054688 " fill-opacity="1" fill-rule="nonzero"/><path fill="#27022e" d="M 167.480469 345.738281 C 164.6875 345.09375 162.746094 351.183594 161.9375 353.921875 C 161.164062 356.523438 160.445312 359.164062 159.867188 361.816406 C 159.351562 364.183594 159.546875 366.800781 161.863281 368.125 C 163.984375 369.339844 165.1875 369.082031 179 369.082031 C 193.183594 369.082031 193.875 368.464844 202.382812 369.394531 C 204.722656 369.648438 207.214844 369.949219 209.523438 369.308594 C 216.351562 367.402344 215.992188 358.460938 208.542969 356.214844 C 203.550781 354.710938 205.304688 355.488281 191.308594 350.996094 C 188.230469 350.007812 185.355469 348.863281 183.007812 349.910156 C 180.890625 350.855469 180.746094 352.808594 177.199219 352.6875 C 174.355469 352.589844 171.511719 351.164062 169.933594 348.210938 C 169.210938 346.859375 168.90625 345.578125 167.394531 345.386719 C 166.546875 345.28125 166.554688 346.613281 167.394531 346.71875 C 168.441406 346.851562 168.527344 350.886719 173.058594 352.96875 C 175.863281 354.261719 179.410156 354.574219 181.628906 352.644531 C 183.011719 351.441406 183.667969 350.375 186.554688 350.996094 C 189.261719 351.578125 198.609375 354.976562 207.222656 357.25 C 212.792969 358.722656 214.179688 363.550781 211.609375 366.265625 C 209.003906 369.019531 204.375 367.925781 199.445312 367.449219 C 195.363281 367.054688 191.25 367.371094 187.160156 367.433594 C 181.171875 367.523438 175.179688 367.460938 169.191406 367.464844 C 167.003906 367.46875 163.464844 367.988281 161.867188 366.082031 C 160.863281 364.882812 161.179688 363.199219 161.507812 361.808594 C 162.199219 358.890625 163.667969 353.128906 164.804688 350.175781 C 165.242188 349.042969 166.058594 346.605469 167.480469 346.367188 C 167.800781 346.3125 167.78125 345.804688 167.480469 345.734375 Z M 167.480469 345.738281 " fill-opacity="1" fill-rule="nonzero"/><path fill="#ffffff" d="M 190.167969 357.230469 C 192 354.070312 191.828125 355.003906 192.066406 353.523438 C 192.113281 353.261719 191.820312 353.050781 191.605469 353.253906 C 190.503906 354.296875 191.21875 353.550781 189.617188 356.90625 C 189.441406 357.273438 189.957031 357.589844 190.167969 357.230469 Z M 190.167969 357.230469 " fill-opacity="1" fill-rule="nonzero"/><path fill="#ffffff" d="M 195.820312 358.675781 C 196.902344 356.976562 197.214844 356.59375 197.09375 356.011719 C 197.027344 355.6875 196.578125 355.78125 196.367188 356.03125 C 195.964844 356.515625 196.054688 356.398438 195.144531 358.285156 C 194.90625 358.785156 195.558594 359.085938 195.816406 358.675781 Z M 195.820312 358.675781 " fill-opacity="1" fill-rule="nonzero"/><path fill="#ffffff" d="M 28.207031 314.183594 C 22.542969 316.402344 22.40625 322.605469 18.375 325.871094 C 14.988281 328.609375 14.875 331.328125 18.882812 334.59375 C 22.542969 337.578125 28.3125 340.75 28.980469 341.117188 C 36.984375 326.421875 45.46875 323.082031 44.214844 318.925781 C 43.8125 317.582031 42.535156 316.9375 40.453125 315.890625 C 38.5 314.910156 33.1875 312.234375 28.207031 314.183594 Z M 28.207031 314.183594 " fill-opacity="1" fill-rule="nonzero"/><path fill="#27022e" d="M 28.128906 313.902344 C 22.21875 315.746094 21.894531 321.984375 18.078125 325.246094 C 16.199219 326.851562 14.472656 328.859375 15.488281 331.496094 C 16.519531 334.171875 19.417969 335.972656 21.683594 337.507812 C 23.921875 339.027344 26.25 340.429688 28.621094 341.734375 C 28.953125 341.917969 29.40625 341.824219 29.597656 341.480469 C 38.0625 326.097656 45.925781 323.464844 44.800781 318.925781 C 44.488281 317.671875 43.464844 316.886719 42.390625 316.273438 C 38.058594 313.792969 32.503906 311.703125 27.949219 313.746094 C 27.414062 313.984375 27.792969 314.84375 28.34375 314.679688 C 33.101562 313.257812 36.960938 314.703125 41.050781 316.828125 C 49.210938 321.066406 37.542969 323.9375 28.363281 340.757812 C 28.691406 340.671875 29.015625 340.585938 29.339844 340.5 C 26.449219 338.925781 19.855469 335.089844 17.679688 332.496094 C 16.710938 331.339844 16.171875 329.914062 16.902344 328.488281 C 17.375 327.566406 18.167969 326.929688 18.941406 326.273438 C 22.847656 322.957031 23.070312 317.140625 28.355469 314.441406 C 28.652344 314.289062 28.445312 313.804688 28.128906 313.902344 Z M 28.128906 313.902344 " fill-opacity="1" fill-rule="nonzero"/><path fill="#27022e" d="M 18.375 325.871094 C 16.269531 324.125 9.679688 329.765625 4.164062 334.496094 C 0.09375 337.976562 0.753906 340.609375 5.121094 343.710938 C 9.9375 347.136719 14.761719 350.558594 19.578125 353.980469 C 25.253906 358.015625 28.332031 359.679688 31.632812 362.542969 C 35.550781 365.945312 38.5625 369.289062 42.347656 368.828125 C 45.96875 368.386719 47.613281 365.40625 47.066406 361.882812 C 46.730469 359.703125 45.492188 358.371094 44.097656 356.742188 C 41.703125 353.953125 39.636719 350.898438 37.382812 348 C 32.164062 341.289062 31.175781 339.011719 28.390625 338.65625 C 26.714844 338.445312 26.242188 339.167969 24.464844 338.679688 C 20.792969 337.675781 19.117188 333.601562 19.027344 333.375 C 17.457031 329.414062 19.6875 326.957031 18.375 325.871094 Z M 18.375 325.871094 " fill-opacity="1" fill-rule="nonzero"/><path fill="#27022e" d="M 18.605469 325.640625 C 16.695312 323.488281 11.414062 327.515625 9.148438 329.304688 C 7.011719 330.984375 4.855469 332.714844 2.871094 334.574219 C 1.121094 336.210938 0 338.46875 1.152344 340.796875 C 2.230469 342.976562 3.230469 343.351562 14.863281 351.625 C 28.433594 361.273438 25.546875 358.375 34.050781 365.769531 C 35.914062 367.390625 38.003906 369.148438 40.519531 369.570312 C 44.808594 370.289062 48.398438 367.257812 47.847656 362.273438 C 47.597656 359.984375 46.328125 358.304688 44.871094 356.609375 C 43.132812 354.585938 42.804688 354.070312 34.160156 342.636719 C 32.390625 340.292969 30.882812 338.0625 27.953125 337.953125 C 26.363281 337.894531 24.625 338.996094 21.945312 336.460938 C 20.035156 334.65625 18.941406 332.292969 19.136719 329.667969 C 19.25 328.117188 19.984375 326.453125 18.847656 325.402344 C 18.21875 324.820312 17.277344 325.757812 17.90625 326.34375 C 18.871094 327.238281 16.464844 330.292969 18.957031 334.742188 C 20.226562 337.007812 22.316406 339.042969 24.898438 339.457031 C 25.824219 339.605469 26.648438 339.339844 27.5625 339.292969 C 31.457031 339.101562 32.558594 343.710938 42.824219 356.265625 C 44.269531 358.035156 46.058594 359.699219 46.371094 362.082031 C 46.617188 363.976562 46.15625 366.101562 44.496094 367.230469 C 40.113281 370.21875 35.46875 364.828125 32.496094 362.21875 C 29.421875 359.527344 25.945312 357.382812 22.582031 355.085938 C 17.71875 351.757812 12.949219 348.285156 8.144531 344.875 C 5.605469 343.070312 2.628906 341.335938 2.292969 339.195312 C 1.953125 337.042969 4.214844 335.476562 7.179688 332.972656 C 9.019531 331.421875 16.144531 325.15625 18.210938 326.15625 C 18.546875 326.316406 18.863281 325.925781 18.609375 325.640625 Z M 18.605469 325.640625 " fill-opacity="1" fill-rule="nonzero"/><path fill="#ffffff" d="M 30.492188 348.160156 C 33.835938 346.636719 33.113281 347.324219 34.179688 346.238281 C 34.390625 346.023438 34.167969 345.738281 33.910156 345.773438 C 32.453125 345.984375 33.40625 345.808594 30.171875 347.609375 C 29.832031 347.796875 30.070312 348.351562 30.492188 348.160156 Z M 30.492188 348.160156 " fill-opacity="1" fill-rule="nonzero"/><path fill="#ffffff" d="M 34.171875 352.652344 C 35.0625 352.289062 36.5 351.769531 36.722656 351.390625 C 37.011719 350.910156 36.621094 350.679688 36.160156 350.804688 C 35.535156 350.972656 34.523438 351.582031 33.875 351.941406 C 33.457031 352.171875 33.800781 352.804688 34.171875 352.652344 Z M 34.171875 352.652344 " fill-opacity="1" fill-rule="nonzero"/><path fill="#ffffff" d="M 70.515625 120.339844 C 60.71875 126.785156 61.148438 153.808594 72.078125 172.269531 C 81.125 187.546875 97.292969 196.851562 107.273438 202.59375 C 117.085938 208.242188 140.535156 223.503906 144.28125 234.320312 C 145.183594 236.914062 145.074219 240.417969 147.996094 260.925781 C 152.398438 291.773438 154.972656 300.195312 152.617188 307.9375 C 149.140625 319.351562 151.828125 322.554688 152.378906 326.84375 C 153.296875 333.980469 150.441406 336.550781 151.667969 339.109375 C 153.285156 342.472656 159.5 340.632812 173.589844 340.464844 C 185.175781 340.328125 192.085938 341.441406 193.246094 338.289062 C 193.84375 336.664062 192.300781 335.589844 191.9375 331.699219 C 191.539062 327.394531 193.023438 324.308594 193.832031 321.988281 C 195.085938 318.414062 194.835938 316.390625 194.164062 302.40625 C 192.703125 272.089844 192.058594 235.96875 178.988281 208.378906 C 172.554688 194.792969 159.59375 183.375 133.933594 161.089844 C 97.925781 129.824219 79.898438 114.167969 70.515625 120.339844 Z M 70.515625 120.339844 " fill-opacity="1" fill-rule="nonzero"/><path fill="#27022e" d="M 70.273438 119.929688 C 63.296875 124.707031 62.585938 135.179688 62.894531 142.824219 C 65 194.980469 115.117188 199.316406 139.359375 228.007812 C 143.6875 233.128906 144.121094 237.746094 144.886719 244.09375 C 149.964844 286.398438 153.589844 293.738281 152.519531 304.046875 C 152.171875 307.390625 150.777344 310.496094 150.3125 313.828125 C 149.476562 319.792969 152.066406 325.058594 151.691406 330.90625 C 151.519531 333.644531 149.382812 337.734375 151.460938 340.203125 C 154.195312 343.457031 161.320312 340.996094 177.714844 341.160156 C 181.945312 341.199219 187.976562 342.351562 191.976562 340.453125 C 194.777344 339.125 193.984375 337.007812 193.285156 334.578125 C 191.667969 328.980469 194.28125 325.007812 195.238281 319.789062 C 195.863281 316.390625 195.492188 312.773438 195.335938 309.351562 C 193.84375 276.5625 193.53125 224.285156 173.84375 198.019531 C 167.765625 189.914062 160.222656 182.964844 152.734375 176.199219 C 140.75 165.371094 105.511719 134.367188 92.179688 125.25 C 85.910156 120.964844 76.785156 115.03125 69.925781 119.332031 C 68.660156 120.128906 69.828125 122.144531 71.101562 121.34375 C 75.339844 118.6875 80.632812 121.117188 84.5625 123.230469 C 92.523438 127.511719 99.636719 133.429688 106.582031 139.144531 C 116.660156 147.4375 153.234375 178.679688 164.210938 190.03125 C 169.996094 196.015625 175.175781 202.472656 178.683594 210.070312 C 191.535156 237.925781 191.957031 275.125 193.527344 306.503906 C 193.726562 310.457031 194.25 314.613281 193.820312 318.570312 C 193.449219 321.96875 191.636719 324.976562 191.253906 328.390625 C 190.46875 335.332031 195.453125 338.933594 188.882812 339.683594 C 182.941406 340.363281 176.761719 339.664062 170.789062 339.828125 C 165.90625 339.964844 160.855469 340.699219 155.976562 340.320312 C 150.8125 339.921875 152.617188 336.273438 153.167969 332.550781 C 153.996094 326.953125 151.488281 321.882812 151.769531 316.328125 C 151.957031 312.59375 153.410156 309.300781 154.035156 305.683594 C 155.464844 297.414062 152.71875 289.003906 147.921875 253.914062 C 145.246094 234.347656 148.292969 232.0625 131.921875 218.550781 C 110.066406 200.515625 82.035156 192.820312 70.09375 166.964844 C 61.730469 148.847656 62.269531 126.9375 70.757812 120.753906 C 71.246094 120.398438 70.789062 119.574219 70.273438 119.925781 Z M 70.273438 119.929688 " fill-opacity="1" fill-rule="nonzero"/><path fill="#ffffff" d="M 246.617188 110.617188 C 232.039062 121.019531 232.871094 119.359375 231.84375 120.765625 C 231.023438 121.894531 231.917969 123.058594 233.265625 122.984375 C 234.535156 122.917969 235.859375 122.09375 237.050781 121.320312 C 247.464844 114.546875 249.300781 113.675781 249.59375 112.085938 C 249.820312 110.84375 248.539062 109.863281 246.617188 110.617188 Z M 246.617188 110.617188 " fill-opacity="1" fill-rule="nonzero"/><path fill="#27022e" d="M 246.441406 110.320312 C 242.539062 112.394531 239.117188 115.398438 234.265625 118.328125 C 233.46875 118.808594 232.59375 119.195312 231.902344 119.832031 C 230.929688 120.730469 230.503906 122.207031 231.710938 123.117188 C 233.867188 124.738281 237.371094 121.804688 241.78125 118.933594 C 247.480469 115.21875 250.664062 113.6875 250.132812 111.371094 C 249.753906 109.714844 247.792969 109.5625 246.460938 110.066406 C 245.78125 110.324219 246.078125 111.425781 246.765625 111.167969 C 248.6875 110.441406 249.574219 111.566406 248.632812 112.761719 C 247.625 114.039062 245.945312 114.855469 244.601562 115.726562 C 239.773438 118.863281 235.496094 122 233.65625 122.351562 C 232.960938 122.484375 231.78125 122.238281 232.214844 121.269531 C 232.65625 120.28125 232.964844 120.730469 238.859375 116.753906 C 241.585938 114.914062 244.449219 113.109375 246.855469 110.859375 C 247.152344 110.582031 246.777344 110.136719 246.441406 110.316406 Z M 246.441406 110.320312 " fill-opacity="1" fill-rule="nonzero"/><path fill="#ffffff" d="M 250.484375 94.558594 C 240.621094 105.90625 244.226562 114.472656 254.734375 115.550781 C 266.984375 116.808594 285.054688 106.0625 289.363281 94.894531 C 293.25 84.816406 285.246094 76.96875 268.414062 82.660156 C 257.882812 86.226562 251.4375 93.460938 250.484375 94.558594 Z M 250.484375 94.558594 " fill-opacity="1" fill-rule="nonzero"/><path fill="#27022e" d="M 250.316406 94.390625 C 244.351562 99.667969 240.597656 110.703125 249.617188 114.878906 C 257.542969 118.542969 267.355469 115.015625 274.460938 111.03125 C 298.308594 97.660156 294.265625 77.945312 275.617188 80.160156 C 266.007812 81.300781 256.09375 86.488281 249.960938 94.039062 C 249.378906 94.757812 250.339844 95.785156 251.003906 95.082031 C 266.757812 78.433594 289.378906 77.917969 289.472656 90.105469 C 289.503906 94.808594 286.660156 99.011719 283.542969 102.289062 C 271.359375 115.074219 251.878906 118.757812 246.523438 110.746094 C 242.882812 105.300781 247.757812 99.160156 250.6875 94.679688 C 250.84375 94.445312 250.507812 94.21875 250.316406 94.390625 Z M 250.316406 94.390625 " fill-opacity="1" fill-rule="nonzero"/><path fill="#ffffff" d="M 253.632812 95.921875 C 244.65625 105.480469 247.515625 112.007812 256.242188 112.363281 C 266.527344 112.78125 282.339844 103.429688 286.519531 94.355469 C 290.191406 86.386719 284.152344 80.238281 269.367188 85.648438 C 260.285156 88.96875 254.492188 95.007812 253.632812 95.921875 Z M 253.632812 95.921875 " fill-opacity="1" fill-rule="nonzero"/><path fill="#27022e" d="M 253.464844 95.753906 C 248.796875 99.390625 244.066406 108.558594 251.414062 111.964844 C 258.238281 115.132812 267.011719 111.457031 273.042969 108.097656 C 279.074219 104.738281 285.277344 100.105469 287.59375 93.734375 C 290.601562 85.476562 283.230469 82.050781 276.03125 83.070312 C 267.566406 84.269531 258.71875 88.917969 253.109375 95.402344 C 252.496094 96.113281 253.460938 97.109375 254.152344 96.445312 C 259.570312 91.21875 266.109375 87.066406 273.476562 85.261719 C 278.152344 84.117188 287.140625 83.425781 286.710938 90.585938 C 286.46875 94.644531 283.476562 98.148438 280.679688 100.800781 C 275.417969 105.785156 268.371094 109.746094 261.261719 111.207031 C 257.820312 111.917969 252.492188 112.308594 249.914062 109.242188 C 246.355469 105.003906 251.488281 99.53125 253.835938 96.042969 C 254 95.800781 253.65625 95.605469 253.464844 95.757812 Z M 253.464844 95.753906 " fill-opacity="1" fill-rule="nonzero"/><path fill="#ffffff" d="M 204.855469 143.617188 C 201.945312 142.902344 200.292969 139.183594 202.714844 136.449219 C 203.816406 135.203125 203.492188 135.550781 221.757812 124.308594 C 233.925781 116.824219 233.761719 116.828125 234.71875 116.582031 C 238.71875 115.550781 241.785156 121.742188 236.875 124.515625 C 233.226562 126.574219 215.6875 137.546875 209.660156 142.007812 C 208.804688 142.640625 206.871094 144.113281 204.855469 143.617188 Z M 204.855469 143.617188 " fill-opacity="1" fill-rule="nonzero"/><path fill="#27022e" d="M 204.960938 143.230469 C 203.308594 142.679688 201.972656 140.953125 202.144531 139.167969 C 202.316406 137.378906 203.75 136.324219 205.140625 135.417969 C 206.074219 134.808594 230.191406 119.996094 231.925781 118.925781 C 233.507812 117.953125 235.453125 116.398438 237.289062 117.765625 C 238.460938 118.640625 238.921875 120.390625 238.472656 121.761719 C 237.828125 123.734375 237.261719 122.945312 219.078125 134.738281 C 207.730469 142.097656 207.390625 143.363281 205.054688 142.898438 C 204.117188 142.714844 203.71875 144.148438 204.65625 144.332031 C 207.605469 144.914062 209.867188 142.726562 212.105469 141.171875 C 222.960938 133.621094 237.90625 124.75 237.910156 124.746094 C 240.535156 122.902344 240.933594 118.910156 238.394531 116.757812 C 237 115.574219 235.105469 115.476562 233.496094 116.261719 C 232.921875 116.542969 215.484375 127.296875 215.40625 127.34375 C 204.1875 134.246094 203.742188 134.210938 202.339844 135.84375 C 199.648438 138.980469 201.171875 143.171875 204.746094 144.003906 C 205.25 144.121094 205.449219 143.390625 204.957031 143.230469 Z M 204.960938 143.230469 " fill-opacity="1" fill-rule="nonzero"/><path fill="#ffffff" d="M 110.710938 135.203125 C 110.332031 123.332031 107.785156 112.285156 98.339844 105.082031 C 95.992188 103.292969 92.632812 101.320312 90.238281 100.816406 C 81.445312 98.976562 70.765625 113.863281 65.917969 123.449219 C 59.003906 137.117188 58.828125 150.136719 58.8125 156.5625 C 58.8125 157.1875 58.886719 158.917969 59.011719 162.382812 C 59.859375 185.847656 59.875 194.515625 66.234375 232.515625 C 42.417969 267.238281 45.960938 259.992188 41.246094 267.804688 C 35.84375 276.765625 37.023438 280.550781 32.753906 284.519531 C 29.003906 288.011719 25.925781 286.664062 20.96875 296.894531 C 17.535156 303.976562 19.109375 306.246094 15.699219 311.144531 C 13.511719 314.289062 11.84375 315.105469 11.910156 317.132812 C 12.011719 320.308594 16.230469 322.386719 20.753906 324.785156 C 40.699219 335.375 40.175781 337.195312 44.125 336.765625 C 48.765625 336.265625 51.824219 333.195312 64.339844 315.800781 C 74.175781 302.136719 79.089844 295.304688 82.1875 290.175781 C 104.910156 252.515625 108.128906 244.722656 109.03125 238.261719 C 110.003906 231.304688 109.03125 199.738281 107.546875 182.46875 C 112.148438 176.988281 116.75 171.511719 121.351562 166.03125 " fill-opacity="1" fill-rule="nonzero"/><path fill="#27022e" d="M 111.78125 135.203125 C 111.402344 124.902344 109.40625 114.320312 101.867188 106.769531 C 96.34375 101.234375 89.253906 97.261719 82.046875 102.066406 C 73.902344 107.496094 67.863281 116.871094 63.898438 125.640625 C 59.597656 135.152344 57.867188 145.527344 57.890625 155.917969 C 58 198.804688 65.429688 229.535156 65.195312 231.8125 C 64.941406 234.304688 61.539062 237.742188 60.046875 239.894531 C 44.09375 262.953125 45.496094 259.714844 42.164062 264.675781 C 38.84375 269.625 37.246094 274.914062 34.757812 280.214844 C 32.601562 284.800781 27.757812 285.996094 24.535156 289.539062 C 21.203125 293.195312 18.992188 298.21875 17.816406 302.984375 C 17.269531 305.214844 16.890625 307.351562 15.742188 309.382812 C 13.613281 313.148438 5.980469 317.179688 16.203125 323.324219 C 21.351562 326.417969 26.804688 329.023438 31.988281 332.070312 C 34.445312 333.511719 36.828125 335.117188 39.332031 336.476562 C 48.214844 341.308594 55.296875 329.558594 59.695312 323.660156 C 72.84375 306.046875 84.792969 288.101562 95.785156 269.074219 C 100.914062 260.199219 107.539062 250.476562 109.667969 240.242188 C 111.042969 233.648438 110.359375 226.511719 110.28125 219.839844 C 109.875 184.613281 107.9375 187.03125 108.636719 183.316406 C 109.121094 180.714844 113.039062 177.519531 114.714844 175.53125 C 117.167969 172.609375 119.625 169.691406 122.082031 166.769531 C 122.9375 165.75 121.472656 164.273438 120.609375 165.300781 C 116.320312 170.417969 112.011719 175.519531 107.738281 180.652344 C 105.386719 183.480469 107.019531 188.507812 107.253906 192.015625 C 108.042969 203.898438 108.316406 215.800781 108.390625 227.707031 C 108.421875 232.253906 108.609375 236.917969 107.40625 241.347656 C 104.390625 252.453125 86.234375 282.949219 77.082031 296.320312 C 71.074219 305.101562 64.851562 313.761719 58.503906 322.296875 C 55.324219 326.574219 51.132812 333.824219 45.613281 335.566406 C 41.296875 336.921875 41.277344 334.804688 19.980469 323.367188 C 16.878906 321.703125 11.21875 319.265625 13.714844 315.078125 C 16.050781 311.164062 17.5625 311.972656 19.277344 304.6875 C 23.621094 286.246094 31.839844 289.015625 35.804688 282.128906 C 38.226562 277.921875 39.246094 273.035156 41.722656 268.789062 C 45.488281 262.320312 44.65625 265.339844 61.972656 240.308594 C 63.441406 238.183594 66.488281 235.253906 67.113281 232.765625 C 67.652344 230.601562 66.203125 226.769531 65.851562 224.578125 C 63.925781 212.484375 61.421875 195.757812 60.804688 183.625 C 59.808594 164.082031 57.386719 143.511719 66.027344 125.21875 C 69.894531 117.027344 76.371094 105.640625 85.34375 102.320312 C 90.027344 100.585938 94.621094 103.59375 98.226562 106.441406 C 106.984375 113.359375 109.210938 124.058594 109.640625 135.207031 C 109.695312 136.582031 111.832031 136.589844 111.78125 135.207031 Z M 111.78125 135.203125 " fill-opacity="1" fill-rule="nonzero"/><path fill="#27022e" d="M 58.8125 120.472656 C 62.230469 116.523438 65.84375 116.734375 67.417969 113.207031 C 68.535156 110.707031 67.851562 108.8125 67.894531 106.890625 C 68.039062 99.636719 78.363281 94.722656 86.765625 89.519531 C 99.84375 81.417969 95.402344 80.585938 118 64.195312 C 126.828125 57.792969 131.851562 54.761719 138.796875 52.941406 C 143.484375 51.707031 149.90625 50.117188 157.117188 52.753906 C 164.285156 55.378906 168.179688 60.691406 169.476562 62.515625 C 175.785156 71.375 175.34375 81.714844 175.152344 85.496094 C 174.546875 97.292969 173.207031 98.976562 174.007812 109.65625 C 174.691406 118.8125 175.46875 129.175781 181.53125 132.304688 C 190.007812 136.683594 200.878906 122.84375 209.578125 127.917969 C 212.820312 129.808594 214.230469 133.441406 216.824219 140.125 C 218.417969 144.230469 220.378906 149.273438 218.160156 151.957031 C 217.136719 153.195312 216.117188 152.851562 212.054688 155.390625 C 209.859375 156.761719 209.394531 157.34375 208.238281 158.0625 C 204.414062 160.445312 200.273438 159.847656 197.367188 159.777344 C 189.261719 159.585938 187.875 163.457031 179.425781 164.902344 C 177.25 165.273438 166.25 166.914062 157.109375 161.113281 C 144.519531 153.125 143.886719 136.371094 143.84375 134.402344 C 138.265625 143.585938 143.863281 147.984375 141.5625 151.1875 C 140.136719 153.171875 137.722656 152.320312 136.667969 154.34375 C 135.4375 156.703125 138.222656 158.820312 137.300781 160.660156 C 135.636719 163.972656 124.257812 161.84375 117.175781 159.648438 C 115.355469 159.085938 113.378906 158.375 111.675781 157.652344 C 108.527344 156.316406 86.300781 150.074219 81.960938 148.730469 C 68.332031 144.511719 54.46875 133.988281 55.554688 126.546875 C 55.957031 123.804688 58.484375 120.847656 58.8125 120.46875 Z M 58.8125 120.472656 " fill-opacity="1" fill-rule="nonzero"/><path fill="#27022e" d="M 59.207031 120.871094 C 61.476562 118.609375 64.742188 117.636719 66.875 115.3125 C 68.878906 113.132812 68.6875 110.59375 68.679688 107.851562 C 68.660156 100.242188 77.40625 96.136719 83.078125 92.765625 C 89.796875 88.777344 95.359375 84.488281 100.992188 79.148438 C 116.746094 64.222656 150.957031 36.84375 168.933594 63.609375 C 176.660156 75.113281 173.414062 88.0625 172.738281 100.847656 C 172.398438 107.277344 172.957031 113.96875 174.03125 120.3125 C 174.835938 125.046875 176.371094 130.8125 180.984375 133.234375 C 190.792969 138.390625 202.085938 121.628906 210.734375 129.863281 C 213.210938 132.21875 214.433594 135.933594 215.679688 139.007812 C 217.015625 142.304688 220.777344 149.339844 217.03125 152.128906 C 215.082031 153.582031 212.40625 154.238281 210.359375 155.664062 C 201.515625 161.804688 198.433594 157.519531 191.070312 159.910156 C 188.027344 160.894531 185.304688 162.625 182.21875 163.511719 C 176.066406 165.28125 168.964844 165.101562 162.929688 163.050781 C 150.910156 158.96875 144.921875 146.453125 144.613281 134.402344 C 144.597656 133.644531 143.566406 133.335938 143.171875 134.011719 C 138.753906 141.589844 141.214844 146.820312 141.246094 147.996094 C 141.363281 151.882812 136.644531 151.824219 135.75 154.570312 C 135.222656 156.179688 136.261719 157.191406 136.394531 158.691406 C 136.703125 162.132812 132.539062 161.632812 130.234375 161.460938 C 120.03125 160.707031 114.882812 157.425781 97.929688 152.425781 C 86.621094 149.089844 71.875 146.453125 61.085938 135.726562 C 55.210938 129.886719 55.179688 126.117188 59.425781 121.089844 C 60.148438 120.238281 58.917969 118.992188 58.191406 119.855469 C 55.804688 122.679688 53.894531 126.035156 54.996094 129.792969 C 56.308594 134.257812 60.375 137.828125 63.933594 140.53125 C 77.472656 150.8125 96.128906 152.6875 111.632812 158.597656 C 116.667969 160.515625 121.789062 162.050781 127.136719 162.808594 C 129.898438 163.199219 135.453125 164.246094 137.621094 161.628906 C 138.839844 160.15625 137.902344 159.054688 137.648438 157.484375 C 136.964844 153.273438 140.539062 154.09375 142.242188 151.585938 C 144.542969 148.203125 139.476562 143.464844 144.511719 134.792969 C 144.03125 134.664062 143.546875 134.535156 143.066406 134.402344 C 143.308594 143.363281 146.527344 153.027344 153.292969 159.148438 C 162.148438 167.15625 176.328125 168.082031 186.941406 163.269531 C 190.414062 161.695312 193.46875 160.460938 197.363281 160.5 C 200.835938 160.53125 204.199219 160.863281 207.445312 159.304688 C 210.089844 158.039062 212.28125 155.914062 214.894531 154.539062 C 216.515625 153.6875 218.304688 153.230469 219.160156 151.457031 C 220.335938 149.015625 219.460938 145.882812 218.699219 143.46875 C 217.511719 139.6875 216.101562 135.792969 214.316406 132.246094 C 212.113281 127.867188 208.339844 125.296875 203.324219 126.019531 C 197.425781 126.867188 192.59375 131.152344 186.726562 131.964844 C 177.308594 133.273438 176.097656 120.957031 175.480469 114.300781 C 173.71875 95.386719 177.726562 87.742188 175.785156 75.628906 C 173.667969 62.441406 163.464844 50.503906 149.382812 50.289062 C 134.523438 50.0625 122.070312 59.660156 110.929688 68.28125 C 103.101562 74.335938 96.535156 82.070312 88.265625 87.503906 C 82.039062 91.589844 74.179688 94.773438 69.507812 100.804688 C 67.507812 103.382812 67.164062 105.683594 67.242188 108.828125 C 67.414062 115.753906 62.746094 115.300781 58.410156 120.078125 C 57.925781 120.609375 58.6875 121.386719 59.203125 120.871094 Z M 59.207031 120.871094 " fill-opacity="1" fill-rule="nonzero"/><path fill="#ffffff" d="M 217.613281 194.640625 C 212.707031 194.695312 208.5 194.5 206.230469 197.691406 C 203.265625 201.867188 205.046875 208.742188 205.761719 214.027344 C 208.765625 236.179688 211.765625 258.335938 214.765625 280.492188 C 216.738281 295.050781 220.359375 300.6875 235.046875 300.839844 C 249.355469 300.988281 314.019531 301.65625 332.042969 301.84375 C 338.355469 301.90625 345.5 301.496094 348.882812 295.574219 C 350.839844 292.140625 350.226562 289.0625 348.988281 274.804688 C 347.105469 253.15625 347.570312 249.699219 345.308594 236.980469 C 341.757812 216.984375 342.019531 211.980469 313.074219 211.445312 C 280.789062 210.847656 264.386719 216.21875 258.925781 208.308594 C 256.246094 204.429688 259.296875 201.839844 256.242188 197.65625 C 252.695312 192.796875 247.125 194.304688 217.617188 194.636719 Z M 217.613281 194.640625 " fill-opacity="1" fill-rule="nonzero"/><path fill="#27022e" d="M 217.613281 194.175781 C 210.179688 193.777344 203.894531 194.933594 203.617188 203.726562 C 203.488281 207.738281 204.488281 211.808594 205.035156 215.761719 C 214.820312 286.925781 214.0625 289.210938 218.164062 295.089844 C 222.769531 301.6875 230.730469 301.761719 238.007812 301.835938 C 338.289062 302.871094 334.445312 302.976562 338.359375 302.457031 C 343.636719 301.757812 349.0625 299.144531 350.496094 293.585938 C 351.875 288.261719 350.386719 281.582031 349.957031 276.242188 C 348.855469 262.546875 348.453125 248.839844 346.058594 235.289062 C 345.035156 229.488281 344.503906 222.085938 340.566406 217.332031 C 331.085938 205.875 292.371094 210.820312 276.75 211.398438 C 271.984375 211.574219 265.175781 212.335938 261.191406 209.054688 C 258.023438 206.445312 259.59375 202.582031 258.382812 199.207031 C 257.765625 197.484375 256.539062 195.851562 254.988281 194.84375 C 250.523438 191.9375 243.460938 193.164062 217.613281 193.496094 C 216.144531 193.515625 216.140625 195.796875 217.613281 195.78125 C 245.6875 195.460938 251.171875 194.128906 254.65625 197.582031 C 257.265625 200.171875 255.933594 203.519531 256.816406 206.617188 C 257.765625 209.941406 260.675781 212.015625 263.84375 212.945312 C 273.179688 215.683594 301.683594 210.683594 325.148438 213.382812 C 329.890625 213.925781 335.398438 214.683594 338.738281 218.488281 C 342.867188 223.203125 343.265625 231.402344 344.308594 237.253906 C 346.453125 249.347656 346.304688 255.214844 347.988281 273.324219 C 349.351562 287.980469 354.820312 300.910156 333.042969 300.9375 C 322.695312 300.949219 312.34375 300.695312 302 300.574219 C 228.1875 299.703125 230.726562 300.320312 226.132812 298.746094 C 214.914062 294.894531 215.585938 279.457031 212.089844 253.648438 C 210.558594 242.324219 209.023438 231 207.488281 219.675781 C 206.785156 214.484375 205.378906 208.972656 205.539062 203.722656 C 205.804688 194.996094 211.449219 195.539062 217.613281 195.101562 C 218.207031 195.058594 218.210938 194.207031 217.613281 194.171875 Z M 217.613281 194.175781 " fill-opacity="1" fill-rule="nonzero"/><path fill="#410f63" d="M 222.453125 301.007812 C 216.460938 295.339844 220.675781 276.8125 229.097656 239.757812 C 229.839844 236.5 231.414062 229.164062 235.941406 226.601562 C 239.015625 224.863281 236.023438 225.519531 362.742188 223.140625 C 371.160156 222.980469 375.003906 225.089844 371.566406 238.96875 C 359.472656 287.804688 359.382812 290.984375 355.246094 295.929688 C 349.566406 302.726562 340.4375 302.25 335.875 302.191406 C 320.921875 301.992188 305.371094 304.609375 290.367188 304.640625 C 273.46875 304.675781 256.730469 304.03125 239.902344 303.773438 C 227.808594 303.589844 225.175781 303.585938 222.453125 301.007812 Z M 222.453125 301.007812 " fill-opacity="1" fill-rule="nonzero"/><path fill="#ffffff" d="M 144.796875 92.078125 C 144.332031 92.554688 144.164062 93.242188 143.921875 93.851562 C 138.078125 108.496094 138.566406 125.097656 140.421875 129.601562 C 140.59375 130.011719 141.171875 129.964844 141.210938 129.492188 C 141.480469 126.160156 139.136719 116.824219 142.535156 101.167969 C 144.199219 93.507812 145.007812 93.398438 144.976562 92.152344 C 144.972656 92.0625 144.863281 92.011719 144.796875 92.078125 Z M 144.796875 92.078125 " fill-opacity="1" fill-rule="nonzero"/><path fill="#ffffff" d="M 108.257812 95.417969 C 106.832031 98.25 103.773438 112.667969 108.085938 128.273438 C 108.449219 129.585938 108.730469 131.515625 109.734375 132.5 C 110.003906 132.765625 110.382812 132.546875 110.417969 132.214844 C 110.503906 131.464844 110.203125 130.785156 109.984375 130.078125 C 104.214844 111.664062 108.417969 98.117188 108.507812 95.484375 C 108.511719 95.355469 108.320312 95.296875 108.257812 95.417969 Z M 108.257812 95.417969 " fill-opacity="1" fill-rule="nonzero"/><path fill="#ffffff" d="M 103.125 127.472656 C 103.324219 128.382812 104.226562 131.519531 104.738281 132.328125 C 104.851562 132.507812 105.207031 132.457031 105.179688 132.207031 C 105.113281 131.566406 105.144531 131.742188 104.855469 130.945312 C 103.683594 127.707031 104.039062 128.601562 103.425781 127.34375 C 103.339844 127.171875 103.089844 127.296875 103.125 127.46875 Z M 103.125 127.472656 " fill-opacity="1" fill-rule="nonzero"/><path fill="#ffffff" d="M 172.023438 140.785156 C 173.203125 138.644531 174.175781 137.125 176.417969 135.941406 C 177.59375 135.320312 178.039062 135.390625 178.539062 135.070312 C 179.128906 134.695312 178.871094 133.839844 178.195312 133.796875 C 176.625 133.695312 171.769531 136.628906 171.042969 140.371094 C 170.933594 140.941406 171.710938 141.34375 172.023438 140.785156 Z M 172.023438 140.785156 " fill-opacity="1" fill-rule="nonzero"/><path fill="#ffffff" d="M 211.609375 133.570312 C 211.609375 133.570312 210.285156 125.496094 221.230469 119.914062 C 222.695312 119.167969 224.4375 119.570312 224.738281 120.773438 C 224.960938 121.652344 224.28125 122.476562 223.675781 123.152344 C 222.191406 124.796875 222.296875 126.105469 224.492188 126.734375 C 231.082031 128.625 234.160156 125.996094 235.839844 127.832031 C 236.53125 128.59375 236.449219 129.765625 236.226562 130.769531 C 234.089844 140.417969 222.265625 147.722656 214.449219 139.050781 C 213.738281 138.261719 212.070312 136.367188 211.609375 133.570312 Z M 211.609375 133.570312 " fill-opacity="1" fill-rule="nonzero"/><path fill="#27022e" d="M 211.15625 131.785156 C 213.28125 129 215.234375 126.160156 217.949219 123.878906 C 218.941406 123.042969 221.351562 120.820312 222.703125 121.96875 C 224.15625 123.203125 222.441406 125.417969 221.617188 126.433594 C 221.335938 126.78125 221.285156 127.410156 221.773438 127.640625 C 225.5 129.386719 228.660156 129.824219 232.085938 129.355469 C 233.074219 129.21875 234.585938 129.152344 235.261719 128.335938 C 235.554688 127.980469 235.464844 127.4375 234.988281 127.300781 C 233.660156 126.914062 232.953125 128.03125 228.894531 127.835938 C 226.6875 127.730469 224.546875 127.28125 222.554688 126.3125 L 222.710938 127.523438 C 224.027344 125.945312 225.414062 124 224.542969 121.863281 C 222.230469 116.167969 212.105469 125.179688 210.421875 131.472656 C 210.292969 131.945312 210.898438 132.128906 211.160156 131.785156 Z M 211.15625 131.785156 " fill-opacity="1" fill-rule="nonzero"/><path fill="#27022e" d="M 216.929688 142.113281 C 219.371094 143.835938 223.710938 143.550781 226.59375 142.6875 C 229.03125 141.957031 234.203125 139.324219 234.347656 136.957031 C 234.375 136.472656 233.859375 136.148438 233.425781 136.257812 C 232.035156 136.609375 230.984375 139.375 225.976562 140.894531 C 222.0625 142.078125 219.25 141.3125 217.160156 141.273438 C 216.679688 141.265625 216.582031 141.871094 216.929688 142.113281 Z M 216.929688 142.113281 " fill-opacity="1" fill-rule="nonzero"/><path fill="#27022e" d="M 224.601562 133.003906 C 227.0625 133.710938 230.742188 132.605469 233.054688 131.507812 C 233.667969 131.214844 235.058594 130.730469 235.109375 129.929688 C 235.117188 129.832031 235.039062 129.757812 234.957031 129.726562 C 234.441406 129.539062 233.964844 130.03125 232.664062 130.65625 C 229.101562 132.371094 226.0625 132.277344 224.601562 132.601562 C 224.394531 132.648438 224.410156 132.949219 224.601562 133.003906 Z M 224.601562 133.003906 " fill-opacity="1" fill-rule="nonzero"/><path fill="#27022e" d="M 224.835938 136.578125 C 228.207031 137.347656 235.632812 133.941406 235.695312 132.359375 C 235.699219 132.25 235.609375 132.113281 235.496094 132.097656 C 234.007812 131.851562 234.125 133.871094 227.738281 135.457031 C 226.785156 135.691406 225.773438 135.75 224.835938 136.039062 C 224.585938 136.117188 224.558594 136.511719 224.835938 136.578125 Z M 224.835938 136.578125 " fill-opacity="1" fill-rule="nonzero"/><path fill="#27022e" d="M 88.246094 156.972656 C 85.070312 163.914062 78.054688 168.832031 70.421875 169.335938 C 70.183594 169.351562 69.972656 169.570312 70.050781 169.820312 C 70.441406 171.074219 75.398438 187.039062 75.984375 189.285156 C 80.734375 207.488281 82.445312 226.957031 74.210938 244.246094 C 67.941406 257.402344 57.941406 262.484375 51.703125 272.820312 C 47.246094 280.199219 47.925781 284.410156 48.070312 289.714844 C 48.148438 292.546875 47.695312 296.011719 45.074219 297.683594 C 42.78125 299.144531 39.875 298.171875 37.441406 299.179688 C 33.808594 300.675781 34.683594 305.351562 33.761719 308.199219 C 31.914062 313.921875 20.828125 315.574219 23.191406 322.738281 C 23.496094 323.664062 24.066406 324.40625 24.886719 324.929688 C 25.238281 325.152344 25.558594 324.597656 25.214844 324.375 C 22.695312 322.753906 23.496094 319.226562 25.144531 317.308594 C 28.46875 313.433594 34.03125 313.003906 34.890625 306.078125 C 35.214844 303.460938 35.320312 300.386719 38.382812 299.582031 C 40.78125 298.949219 43.464844 299.597656 45.597656 298.058594 C 47.402344 296.75 48.28125 294.492188 48.535156 292.34375 C 49.179688 286.957031 46.710938 282.933594 51.539062 274.203125 C 57.332031 263.714844 67.601562 258.324219 73.992188 245.90625 C 85.960938 222.636719 78.5625 194.496094 70.792969 169.617188 C 70.671875 169.78125 70.546875 169.941406 70.425781 170.101562 C 78.335938 169.582031 85.609375 164.570312 88.800781 157.296875 C 88.964844 156.921875 88.421875 156.59375 88.25 156.972656 Z M 88.246094 156.972656 " fill-opacity="1" fill-rule="nonzero"/><path fill="#27022e" d="M 111.335938 195.679688 C 123.269531 201.835938 135.511719 207.992188 145.441406 217.203125 C 154.496094 225.601562 161.691406 237.03125 162.453125 249.613281 C 163.214844 262.164062 156.078125 276.28125 165.011719 287.335938 C 166.789062 289.539062 169.070312 292.050781 167.980469 295.09375 C 166.597656 298.945312 161.101562 301.445312 161.863281 306.097656 C 162.535156 310.207031 167.632812 312.441406 168.925781 315.976562 C 170.664062 320.714844 163.050781 323.125 164.394531 328.042969 C 165.105469 330.636719 167.898438 332.246094 168.046875 335.027344 C 168.105469 336.125 167.761719 337.574219 166.472656 337.730469 C 165.796875 337.808594 165.910156 338.753906 166.597656 338.65625 C 168.769531 338.355469 169.1875 335.816406 168.777344 334.027344 C 168.160156 331.304688 164.882812 329.578125 165.058594 326.617188 C 165.210938 324.09375 167.765625 322.398438 169.027344 320.414062 C 173.570312 313.28125 161.035156 310.664062 162.667969 304.132812 C 163.777344 299.703125 169.964844 297.484375 168.894531 292.300781 C 168.304688 289.449219 165.8125 287.460938 164.28125 285.128906 C 158.363281 276.121094 162.59375 263.609375 163.1875 254.402344 C 164.007812 241.648438 158.136719 229.59375 149.667969 220.367188 C 139.238281 209.003906 125.238281 201.953125 111.597656 195.234375 C 111.300781 195.089844 111.039062 195.527344 111.335938 195.679688 Z M 111.335938 195.679688 " fill-opacity="1" fill-rule="nonzero"/><path fill="#27022e" d="M 366.386719 257.710938 C 364.109375 266.972656 362.832031 272.113281 358.320312 284.566406 C 357.066406 288.03125 355.804688 291.53125 354.226562 294.867188 C 353.636719 296.113281 353.0625 297.0625 351.839844 297.820312 C 349.164062 299.472656 345.660156 299.585938 342.617188 299.863281 C 325.625 301.40625 320.179688 299.992188 316.351562 300.742188 C 315.507812 300.910156 315.636719 302.089844 316.351562 302.324219 C 320.652344 303.730469 335.9375 302.867188 340.445312 302.464844 C 345.632812 302.007812 353.054688 301.621094 355.5 296.976562 C 358.730469 290.839844 366.960938 265.0625 367.414062 257.847656 C 367.453125 257.257812 366.527344 257.140625 366.386719 257.710938 Z M 366.386719 257.710938 " fill-opacity="1" fill-rule="nonzero"/><path fill="#27022e" d="M 279.78125 305.15625 C 280.050781 305.316406 280.019531 305.457031 280.660156 305.519531 C 281.386719 305.589844 282.066406 305.5 283.308594 305.410156 C 285.785156 305.230469 286.304688 305.253906 286.839844 304.863281 C 287.089844 304.683594 287.160156 304.269531 286.839844 304.105469 C 286.273438 303.8125 285.652344 303.878906 285.03125 303.933594 C 279.851562 304.371094 280.539062 304.253906 279.75 304.894531 C 279.664062 304.964844 279.699219 305.105469 279.785156 305.15625 Z M 279.78125 305.15625 " fill-opacity="1" fill-rule="nonzero"/><path fill="#27022e" d="M 343.480469 289.828125 L 343.230469 289.761719 C 344.015625 290.125 343.890625 290.09375 347.941406 286.304688 C 348.523438 285.757812 349.074219 285.257812 348.957031 284.546875 C 348.921875 284.332031 348.695312 284.121094 348.488281 284.074219 C 347.792969 283.921875 347.210938 284.535156 346.753906 284.980469 C 343.28125 288.367188 342.710938 288.742188 342.980469 289.40625 C 342.960938 289.59375 343.136719 289.847656 343.480469 289.828125 Z M 343.480469 289.828125 " fill-opacity="1" fill-rule="nonzero"/><path fill="#27022e" d="M 345.933594 292.121094 C 346.75 292.109375 346.917969 292.144531 347.441406 291.960938 C 348.960938 291.433594 350.40625 290.429688 350.933594 288.914062 C 351.074219 288.507812 350.550781 288.308594 350.277344 288.53125 C 349.410156 289.246094 348.5 290.03125 347.59375 290.488281 C 347.472656 290.550781 346.214844 291.105469 345.804688 291.1875 C 345.273438 291.292969 345.402344 292.128906 345.933594 292.121094 Z M 345.933594 292.121094 " fill-opacity="1" fill-rule="nonzero"/><path fill="#27022e" d="M 242.820312 212.605469 C 242.914062 212.789062 243.007812 212.972656 243.097656 213.160156 L 243.097656 212.640625 C 242.871094 213.035156 243.097656 213.414062 243.253906 213.785156 C 243.40625 214.140625 243.90625 214.183594 244.203125 214.035156 C 244.96875 213.636719 247.652344 211.796875 247.921875 211.582031 C 248.609375 211.03125 248.519531 211.132812 248.914062 210.511719 C 249.167969 210.109375 248.75 209.675781 248.335938 209.757812 C 248.078125 209.8125 247.828125 209.855469 247.589844 209.976562 C 246.851562 210.347656 243.980469 212.398438 243.363281 212.949219 C 243.726562 212.996094 244.089844 213.042969 244.449219 213.089844 C 244.210938 212.769531 243.992188 212.386719 243.542969 212.390625 L 243.984375 212.644531 C 243.871094 212.472656 243.757812 212.300781 243.644531 212.128906 C 243.304688 211.613281 242.546875 212.058594 242.820312 212.609375 Z M 242.820312 212.605469 " fill-opacity="1" fill-rule="nonzero"/><path fill="#27022e" d="M 133.539062 23.117188 C 134.277344 24.089844 133.289062 23.472656 144.699219 30.90625 C 145.777344 31.613281 147.183594 32.921875 148.546875 32.863281 C 148.839844 32.847656 149.15625 32.546875 149.03125 32.230469 C 148.523438 30.960938 146.914062 30.257812 145.824219 29.554688 C 134.273438 22.089844 135.101562 22.679688 134.0625 22.4375 C 133.710938 22.355469 133.277344 22.773438 133.539062 23.117188 Z M 133.539062 23.117188 " fill-opacity="1" fill-rule="nonzero"/><path fill="#27022e" d="M 147.179688 22.300781 C 147.175781 23.179688 150.492188 26.859375 151.441406 27.96875 C 152.03125 28.664062 152.59375 29.503906 153.226562 29.46875 C 153.371094 29.464844 153.53125 29.371094 153.558594 29.21875 C 153.707031 28.460938 152.859375 27.78125 152.417969 27.277344 C 152.164062 26.988281 147.1875 21.0625 147.179688 22.300781 Z M 147.179688 22.300781 " fill-opacity="1" fill-rule="nonzero"/><path fill="#27022e" d="M 156.398438 22.445312 C 157.222656 12.589844 157.40625 12.304688 157.164062 10.605469 C 157.109375 10.246094 156.589844 10.308594 156.5 10.605469 C 156.148438 11.746094 156.195312 11.921875 155.472656 22.445312 C 155.433594 23.042969 156.351562 23.035156 156.398438 22.445312 Z M 156.398438 22.445312 " fill-opacity="1" fill-rule="nonzero"/><path fill="#27022e" d="M 204.554688 43.265625 C 205.296875 42.820312 211.582031 36.507812 212.417969 34.960938 C 212.621094 34.582031 212.203125 34.125 211.8125 34.355469 C 210.988281 34.851562 210.316406 35.503906 209.652344 36.199219 C 204.140625 41.984375 204.191406 41.9375 203.855469 42.5625 C 203.617188 43.003906 204.101562 43.53125 204.554688 43.265625 Z M 204.554688 43.265625 " fill-opacity="1" fill-rule="nonzero"/><path fill="#27022e" d="M 207.230469 48.976562 C 207.691406 49.390625 208.179688 49.152344 210.683594 48.402344 C 213.71875 47.496094 213.429688 47.445312 214.09375 46.957031 C 214.308594 46.796875 214.253906 46.425781 213.949219 46.425781 C 212.890625 46.417969 213.234375 46.339844 212.042969 46.6875 C 211.855469 46.738281 207.871094 48.011719 207.398438 48.414062 C 207.28125 48.515625 207.066406 48.828125 207.230469 48.976562 Z M 207.230469 48.976562 " fill-opacity="1" fill-rule="nonzero"/><path fill="#27022e" d="M 205.308594 57.792969 C 212.910156 58.585938 212.980469 58.707031 213.730469 58.234375 C 213.976562 58.078125 214.046875 57.71875 213.824219 57.503906 C 213.066406 56.789062 212.460938 56.925781 205.308594 56.273438 C 204.898438 56.234375 204.546875 56.648438 204.546875 57.03125 C 204.546875 57.488281 204.957031 57.792969 205.308594 57.792969 Z M 205.308594 57.792969 " fill-opacity="1" fill-rule="nonzero"/><path fill="#27022e" d="M 251.449219 63.671875 C 250.585938 59.683594 249.496094 56.300781 250.949219 52.230469 C 252.0625 49.117188 254.292969 46.660156 256.0625 43.933594 C 258.695312 39.886719 260.402344 34.941406 257.648438 30.503906 C 253.25 23.410156 240.050781 24.703125 239.726562 34.074219 C 239.679688 35.441406 241.730469 36.050781 242.363281 34.789062 C 244.503906 30.507812 248.546875 26.542969 253.410156 30.277344 C 258.644531 34.292969 255.164062 40.375 252.273438 44.652344 C 248.507812 50.226562 245.3125 58.367188 250.304688 64.339844 C 250.773438 64.90625 251.585938 64.285156 251.449219 63.671875 Z M 251.449219 63.671875 " fill-opacity="1" fill-rule="nonzero"/><path fill="#27022e" d="M 252.636719 72.597656 C 253.15625 72.429688 253.632812 71.949219 253.800781 71.429688 C 254.09375 70.878906 253.976562 70.457031 253.914062 69.996094 C 253.808594 69.621094 253.621094 69.296875 253.34375 69.019531 L 252.898438 68.675781 C 252.3125 68.335938 251.523438 68.253906 250.933594 68.5625 C 250.414062 68.730469 249.9375 69.210938 249.769531 69.730469 C 249.476562 70.285156 249.59375 70.703125 249.65625 71.167969 C 249.761719 71.542969 249.949219 71.867188 250.222656 72.140625 C 250.371094 72.257812 250.523438 72.371094 250.671875 72.484375 C 251.242188 72.820312 252.035156 72.914062 252.636719 72.597656 Z M 252.636719 72.597656 " fill-opacity="1" fill-rule="nonzero"/><path fill="#27022e" d="M 251.773438 70.75 C 252.039062 70.6875 252.320312 70.664062 252.28125 70.378906 C 252.242188 70.09375 251.972656 70.140625 251.6875 70.140625 C 251.242188 70.132812 251.300781 70.867188 251.773438 70.75 Z M 251.773438 70.75 " fill-opacity="1" fill-rule="nonzero"/><path fill="#ffffff" d="M 283.917969 123.175781 C 287.167969 120.429688 291.078125 118.460938 295.222656 117.488281 C 297.027344 117.0625 299.136719 116.894531 300.539062 118.113281 C 302.484375 119.8125 302.738281 124.652344 296.035156 126.847656 Z M 283.917969 123.175781 " fill-opacity="1" fill-rule="nonzero"/><path fill="#27022e" d="M 284.0625 123.421875 C 286.894531 122.070312 289.085938 119.648438 295.128906 118.238281 C 296.757812 117.855469 299.121094 117.457031 300.335938 118.960938 C 301.652344 120.59375 301.261719 124.050781 296.570312 125.839844 C 296.394531 125.90625 295.898438 126.082031 296.207031 126.089844 C 295.777344 126.082031 295.21875 125.785156 294.8125 125.660156 C 284.082031 122.375 284.128906 122.171875 283.464844 122.703125 C 283.683594 122.644531 283.90625 122.585938 284.125 122.53125 C 283.25 122.265625 282.894531 123.574219 283.765625 123.835938 C 283.605469 123.679688 283.449219 123.519531 283.289062 123.363281 C 283.503906 124.058594 283.992188 124.066406 288.3125 125.355469 C 296.914062 127.910156 295.683594 127.882812 297.46875 127.132812 C 305.050781 123.945312 303.492188 115.78125 296.75 116.496094 C 292.914062 116.902344 285.925781 119.902344 283.671875 123.03125 C 283.488281 123.285156 283.832031 123.53125 284.0625 123.421875 Z M 284.0625 123.421875 " fill-opacity="1" fill-rule="nonzero"/><path fill="#ffffff" d="M 282.753906 128.15625 C 281.953125 130.035156 282.257812 132.246094 283.144531 134.085938 C 284.027344 135.925781 285.433594 137.460938 286.878906 138.90625 C 288.585938 140.613281 290.742188 142.40625 293.171875 141.589844 C 295.257812 140.890625 296.171875 138.273438 295.71875 136.117188 C 295.265625 133.964844 293.8125 132.175781 292.40625 130.484375 Z M 282.753906 128.15625 " fill-opacity="1" fill-rule="nonzero"/><path fill="#27022e" d="M 282.621094 127.933594 C 281.234375 128.554688 281.605469 131.917969 282.136719 133.425781 C 282.832031 135.410156 284.132812 137.101562 285.558594 138.617188 C 286.941406 140.085938 288.445312 141.664062 290.421875 142.292969 C 294.34375 143.53125 297.179688 140.054688 296.546875 136.160156 C 296.21875 134.140625 295.011719 132.40625 293.769531 130.835938 C 292.703125 129.488281 293.488281 129.859375 288.78125 128.730469 C 283.601562 127.484375 283.167969 127.265625 282.453125 127.851562 C 282.59375 127.8125 282.738281 127.773438 282.878906 127.738281 C 282.308594 127.601562 282.089844 128.449219 282.636719 128.582031 C 282.179688 128.472656 282.394531 128.328125 282.445312 128.488281 C 282.648438 129.125 283.382812 129.210938 291.816406 131.207031 C 291.925781 131.230469 292.074219 131.238281 292.175781 131.289062 C 290.867188 130.625 295.328125 133.902344 295.011719 137.695312 C 294.898438 139.050781 294.152344 140.53125 292.75 140.902344 C 290.882812 141.398438 289.152344 140.054688 287.890625 138.851562 C 280.761719 132.066406 283.539062 129.414062 283.003906 128.089844 C 282.9375 127.921875 282.789062 127.859375 282.621094 127.933594 Z M 282.621094 127.933594 " fill-opacity="1" fill-rule="nonzero"/><path fill="#27022e" d="M 282.9375 128.964844 C 282.9375 128.964844 279.574219 127.703125 279.046875 125.746094 C 278.449219 123.527344 281.222656 119.609375 283.964844 122.5625 C 285.878906 122.320312 290.753906 121.796875 292.863281 122.167969 C 294.734375 122.5 296.585938 123.429688 297.597656 125.035156 C 298.554688 126.546875 298.429688 128.945312 297.167969 130.269531 C 296.050781 131.445312 294.390625 131.367188 291.988281 131.21875 C 287.253906 130.929688 283.03125 128.996094 282.9375 128.964844 Z M 282.9375 128.964844 " fill-opacity="1" fill-rule="nonzero"/><path fill="#27022e" d="M 283 128.863281 C 282.777344 128.699219 282.648438 128.488281 282.460938 128.296875 C 281.960938 127.78125 278.707031 126.582031 279.828125 123.894531 C 280.085938 123.273438 280.519531 122.648438 281.125 122.320312 C 282.039062 121.816406 282.742188 122.34375 283.449219 122.898438 C 284.660156 123.84375 293.800781 120.507812 296.980469 125.230469 C 297.878906 126.566406 297.855469 128.742188 296.644531 129.898438 C 295.484375 131.007812 293.433594 130.652344 291.988281 130.542969 C 288.953125 130.304688 285.777344 129.332031 283.125 128.289062 C 282.285156 127.957031 281.921875 129.316406 282.753906 129.640625 C 282.675781 129.613281 287.007812 131.746094 293.078125 131.945312 C 294.832031 132.003906 296.714844 131.898438 297.878906 130.398438 C 299.003906 128.949219 299.15625 126.796875 298.375 125.152344 C 295.542969 119.203125 284.652344 122.21875 284.191406 121.929688 C 283.777344 121.667969 283.472656 121.335938 283.011719 121.136719 C 279.839844 119.800781 276.582031 124.925781 279.625 127.621094 C 281.542969 129.320312 282.265625 129.023438 282.9375 129.082031 C 283.070312 129.09375 283.082031 128.925781 283 128.863281 Z M 283 128.863281 " fill-opacity="1" fill-rule="nonzero"/><path fill="#27022e" d="M 291.816406 219.277344 C 291.921875 218.363281 290.992188 216.707031 289.003906 212.476562 C 288.777344 211.992188 288.085938 211.867188 287.652344 212.121094 C 287.179688 212.398438 287.046875 213 287.300781 213.472656 C 287.875 214.542969 289.589844 217.746094 289.871094 218.273438 C 290.851562 220.101562 291.730469 220.015625 291.816406 219.28125 Z M 291.816406 219.277344 " fill-opacity="1" fill-rule="nonzero"/><path fill="#27022e" d="M 286.972656 205.777344 C 287.539062 204.445312 287.574219 202.921875 287.742188 201.496094 C 288.160156 198.023438 288.230469 197.582031 287.921875 197.039062 C 287.660156 196.574219 286.867188 196.394531 286.5 196.855469 C 286.132812 197.316406 286.058594 197.480469 285.90625 201.332031 C 285.847656 202.746094 285.628906 204.261719 285.972656 205.644531 C 286.078125 206.066406 286.785156 206.222656 286.972656 205.777344 Z M 286.972656 205.777344 " fill-opacity="1" fill-rule="nonzero"/><path fill="#27022e" d="M 290.289062 190.578125 C 290.394531 190.480469 290.496094 190.472656 290.617188 190.398438 C 291.421875 189.898438 293.847656 186.617188 294.8125 185.417969 C 295.191406 184.949219 295.230469 185.015625 295.425781 184.332031 C 295.644531 183.570312 294.648438 182.546875 293.589844 183.667969 C 293.515625 183.742188 290.289062 188.503906 289.867188 189.675781 C 289.8125 189.835938 289.835938 190.019531 289.765625 190.175781 C 289.617188 190.507812 289.996094 190.847656 290.289062 190.578125 Z M 290.289062 190.578125 " fill-opacity="1" fill-rule="nonzero"/><path fill="#27022e" d="M 300.082031 180.546875 L 300.308594 180.613281 C 300.199219 180.53125 300.089844 180.445312 299.980469 180.363281 C 300.386719 181.226562 301.917969 180.417969 306.660156 178.367188 C 307.820312 177.863281 308.296875 177.761719 308.542969 177.054688 C 308.710938 176.570312 308.34375 176.144531 307.929688 175.972656 C 307.351562 175.738281 307.082031 175.996094 303.867188 177.503906 C 301.886719 178.4375 299.585938 179.363281 299.925781 180.234375 L 299.980469 179.816406 L 299.875 180.042969 C 299.78125 180.246094 299.855469 180.484375 300.082031 180.546875 Z M 300.082031 180.546875 " fill-opacity="1" fill-rule="nonzero"/><path fill="#27022e" d="M 316.691406 177.339844 C 317.742188 177.460938 316.691406 177.628906 322.253906 177.441406 C 323.367188 177.40625 324.8125 177.484375 324.640625 176.359375 C 324.476562 175.257812 322.863281 175.613281 322.109375 175.660156 C 316.550781 176.015625 317.527344 176.101562 316.554688 176.3125 C 315.929688 176.449219 316.148438 177.277344 316.691406 177.339844 Z M 316.691406 177.339844 " fill-opacity="1" fill-rule="nonzero"/><path fill="#27022e" d="M 332.9375 172.078125 C 333.75 171.773438 335.332031 169.164062 335.867188 168.339844 C 336.019531 168.105469 336.105469 167.855469 336.183594 167.589844 C 336.40625 166.871094 335.476562 166.398438 334.964844 166.878906 C 334.398438 167.410156 332.320312 170.878906 332.394531 171.664062 C 332.417969 171.914062 332.652344 172.1875 332.9375 172.078125 Z M 332.9375 172.078125 " fill-opacity="1" fill-rule="nonzero"/><path fill="#27022e" d="M 336.929688 160.480469 L 336.929688 160.269531 C 336.90625 160.351562 336.886719 160.429688 336.863281 160.511719 C 337.273438 159.753906 336.785156 158.269531 336.605469 157.574219 C 336.070312 155.503906 336.039062 155.070312 335.648438 154.75 C 335.140625 154.339844 334.457031 154.488281 334.234375 155.125 C 334.058594 155.636719 334.335938 156.253906 334.492188 156.746094 C 335.007812 158.398438 335.433594 160.234375 336.210938 160.683594 L 336.039062 160.511719 L 336.152344 160.691406 C 336.371094 161.035156 336.925781 160.902344 336.929688 160.480469 Z M 336.929688 160.480469 " fill-opacity="1" fill-rule="nonzero"/><path fill="#27022e" d="M 331.558594 147.363281 C 331.464844 146.738281 328.390625 143.195312 327.929688 142.875 C 327.597656 142.648438 327.042969 142.730469 326.777344 143.023438 C 325.972656 143.898438 327.039062 144.695312 327.648438 145.308594 C 328.085938 145.75 330.203125 147.957031 330.820312 148.101562 C 331.300781 148.210938 331.625 147.816406 331.558594 147.363281 Z M 331.558594 147.363281 " fill-opacity="1" fill-rule="nonzero"/><path fill="#27022e" d="M 322.980469 140.320312 C 322.632812 140.035156 322.628906 139.503906 319.976562 138.015625 C 317.085938 136.394531 316.894531 136.238281 316.449219 136.300781 C 315.519531 136.421875 315.253906 137.160156 315.578125 137.816406 C 315.875 138.417969 316.785156 138.703125 317.359375 138.992188 C 318.972656 139.804688 321.320312 141.152344 322.585938 140.945312 L 322.339844 140.945312 L 322.574219 141.015625 C 322.953125 141.128906 323.3125 140.589844 322.980469 140.320312 Z M 322.980469 140.320312 " fill-opacity="1" fill-rule="nonzero"/><path fill="#27022e" d="M 311.152344 134.042969 C 309.496094 133.125 307.746094 132.886719 305.144531 132.511719 C 303.402344 132.257812 303.492188 134.441406 304.566406 134.597656 C 307.066406 134.960938 309.113281 135.296875 311.042969 134.871094 C 311.421875 134.785156 311.480469 134.226562 311.152344 134.042969 Z M 311.152344 134.042969 " fill-opacity="1" fill-rule="nonzero"/><path fill="#27022e" d="M 286.84375 114.871094 C 287.867188 112.375 290.417969 104.746094 290.683594 103.9375 C 291.070312 102.757812 291.742188 101.421875 291.578125 100.15625 C 291.527344 99.773438 291.082031 99.496094 290.765625 99.820312 C 289.992188 100.609375 289.859375 101.226562 288.042969 106.957031 C 287.238281 109.480469 286.375 111.992188 285.722656 114.5625 C 285.53125 115.308594 286.570312 115.546875 286.84375 114.871094 Z M 286.84375 114.871094 " fill-opacity="1" fill-rule="nonzero"/><path fill="#27022e" d="M 282.570312 115.496094 C 282.417969 114.636719 282.035156 114.058594 281.445312 112.960938 C 280.84375 111.84375 280.078125 112.007812 279.90625 112.53125 C 279.71875 113.109375 280.1875 113.625 280.753906 114.441406 C 281.589844 115.648438 281.632812 115.585938 282.050781 115.898438 C 282.25 116.054688 282.640625 115.867188 282.574219 115.496094 Z M 282.570312 115.496094 " fill-opacity="1" fill-rule="nonzero"/><path fill="#27022e" d="M 268.054688 135.378906 C 270.21875 135.007812 272.488281 134.257812 275.355469 133.308594 C 276.28125 133.003906 277.027344 132.710938 277.472656 132.085938 C 277.6875 131.785156 277.457031 131.378906 277.144531 131.28125 C 276.351562 131.03125 275.464844 131.367188 274.703125 131.628906 C 272.003906 132.5625 269.773438 133.277344 267.632812 134.378906 C 267.046875 134.679688 267.484375 135.476562 268.054688 135.375 Z M 268.054688 135.378906 " fill-opacity="1" fill-rule="nonzero"/><path fill="#27022e" d="M 276.601562 138.800781 C 278.390625 137.523438 278.425781 137.554688 278.503906 137.277344 C 278.535156 137.09375 278.527344 137.09375 278.484375 137.285156 C 278.496094 137.265625 278.632812 137.046875 278.6875 136.960938 C 278.820312 136.75 278.601562 136.507812 278.378906 136.558594 C 278.238281 136.59375 278.097656 136.625 277.953125 136.660156 L 278.195312 136.660156 C 277.773438 136.574219 277.75 136.667969 276.980469 137.21875 C 275.988281 137.925781 275.878906 137.960938 275.8125 138.195312 C 275.675781 138.691406 276.261719 139.039062 276.597656 138.800781 Z M 276.601562 138.800781 " fill-opacity="1" fill-rule="nonzero"/><path fill="#27022e" d="M 331.332031 202.390625 C 332.625 201.480469 333.261719 200.515625 336.925781 195.738281 C 339.339844 192.589844 341.691406 189.746094 341.746094 188.585938 C 341.761719 188.289062 341.429688 188.027344 341.144531 188.125 C 340.085938 188.484375 339.171875 189.894531 333.007812 198.21875 C 332.148438 199.375 331.21875 200.5625 330.738281 201.9375 C 330.625 202.257812 331.046875 202.59375 331.332031 202.394531 Z M 331.332031 202.390625 " fill-opacity="1" fill-rule="nonzero"/><path fill="#27022e" d="M 325.769531 200.710938 C 325.601562 199.3125 325.304688 197.941406 324.941406 196.582031 C 324.605469 195.316406 324.40625 193.617188 323.339844 192.734375 C 323.007812 192.457031 322.554688 192.5625 322.40625 192.980469 C 321.945312 194.292969 322.652344 195.847656 323.019531 197.109375 C 323.414062 198.460938 323.863281 199.785156 324.441406 201.070312 C 324.722656 201.695312 325.855469 201.402344 325.769531 200.707031 Z M 325.769531 200.710938 " fill-opacity="1" fill-rule="nonzero"/><path fill="#27022e" d="M 246.800781 168.117188 C 249.246094 171.199219 258.96875 184.691406 260.570312 185.5 C 261 185.71875 261.519531 185.359375 261.390625 184.871094 C 260.914062 183.050781 249.851562 170.820312 247.253906 167.660156 C 246.992188 167.339844 246.546875 167.796875 246.800781 168.117188 Z M 246.800781 168.117188 " fill-opacity="1" fill-rule="nonzero"/><path fill="#27022e" d="M 242.605469 183.199219 C 250.277344 189.394531 250.179688 189.378906 251.117188 189.554688 C 251.523438 189.628906 251.800781 189.257812 251.628906 188.890625 C 251.1875 187.945312 250.773438 187.75 243.371094 182.210938 C 242.800781 181.785156 242.050781 182.75 242.605469 183.199219 Z M 242.605469 183.199219 " fill-opacity="1" fill-rule="nonzero"/><g clip-path="url(#b2966a0c77)"><g clip-path="url(#bccda1b7cd)"><g transform="matrix(1, 0, 0, 1, 247, 255)"><g clip-path="url(#52ef090147)"><g clip-path="url(#24f04f2d50)"><g clip-path="url(#b0a506e069)"><path fill="#640d6b" d="M 0.292969 0.0703125 L 11.613281 0.0703125 L 11.613281 11.390625 L 0.292969 11.390625 Z M 0.292969 0.0703125 " fill-opacity="1" fill-rule="nonzero"/></g></g></g></g></g></g></svg>